<svg aria-hidden="true" style="position: absolute; width: 0; height: 0; overflow: hidden;" version="1.1" xmlns="http://www.w3.org/2000/svg" xmlns:xlink="http://www.w3.org/1999/xlink">
<defs>
<symbol id="icon-akar-icons_heart" viewBox="0 0 32 32">
<path d="M8.16671 3.5C4.94554 3.5 2.33337 6.08533 2.33337 9.275C2.33337 11.8498 3.35421 17.9608 13.4027 24.1383C13.5827 24.2479 13.7893 24.3058 14 24.3058C14.2107 24.3058 14.4174 24.2479 14.5974 24.1383C24.6459 17.9608 25.6667 11.8498 25.6667 9.275C25.6667 6.08533 23.0545 3.5 19.8334 3.5C16.6122 3.5 14 7 14 7C14 7 11.3879 3.5 8.16671 3.5Z" stroke="black" stroke-width="2" stroke-linecap="round" stroke-linejoin="round"/>
</symbol>
<symbol id="icon-akar-icons_search" viewBox="0 0 32 32">
<path d="M24.5 24.5L19.2664 19.257M22.1667 12.25C22.1667 14.88 21.1219 17.4024 19.2622 19.2621C17.4024 21.1219 14.8801 22.1666 12.25 22.1666C9.61998 22.1666 7.09763 21.1219 5.2379 19.2621C3.37816 17.4024 2.33337 14.88 2.33337 12.25C2.33337 9.61992 3.37816 7.09757 5.2379 5.23784C7.09763 3.3781 9.61998 2.33331 12.25 2.33331C14.8801 2.33331 17.4024 3.3781 19.2622 5.23784C21.1219 7.09757 22.1667 9.61992 22.1667 12.25Z" stroke="black" stroke-width="2" stroke-linecap="round"/>
</symbol>
<symbol id="icon-ant-design_shopping-cart-outlined" viewBox="0 0 32 32">
<path d="M28.841 21.934h-18.609l0.934-1.903 15.525-0.028c0.525 0 0.975-0.375 1.069-0.894l2.15-12.034c0.056-0.316-0.028-0.641-0.234-0.888-0.102-0.122-0.229-0.219-0.373-0.287s-0.3-0.103-0.459-0.104l-19.75-0.066-0.169-0.794c-0.106-0.506-0.563-0.875-1.081-0.875h-4.828c-0.293 0-0.573 0.116-0.78 0.323s-0.323 0.487-0.323 0.78c0 0.293 0.116 0.573 0.323 0.78s0.487 0.323 0.78 0.323h3.934l0.737 3.506 1.816 8.791-2.338 3.816c-0.121 0.164-0.194 0.358-0.211 0.562s0.024 0.407 0.117 0.588c0.188 0.372 0.566 0.606 0.984 0.606h1.963c-0.418 0.556-0.644 1.233-0.644 1.928 0 1.769 1.438 3.206 3.206 3.206s3.206-1.438 3.206-3.206c0-0.697-0.231-1.375-0.644-1.928h5.034c-0.418 0.556-0.644 1.233-0.644 1.928 0 1.769 1.438 3.206 3.206 3.206s3.206-1.438 3.206-3.206c0-0.697-0.231-1.375-0.644-1.928h3.541c0.606 0 1.103-0.494 1.103-1.103-0.002-0.292-0.119-0.572-0.326-0.778s-0.488-0.322-0.78-0.322zM9.553 7.906l17.994 0.059-1.762 9.869-14.134 0.025-2.097-9.953zM12.581 27.053c-0.544 0-0.987-0.444-0.987-0.988s0.444-0.987 0.987-0.987c0.544 0 0.988 0.444 0.988 0.987 0 0.262-0.104 0.513-0.289 0.698s-0.436 0.289-0.698 0.289zM22.741 27.053c-0.544 0-0.988-0.444-0.988-0.988s0.444-0.987 0.988-0.987c0.544 0 0.987 0.444 0.987 0.987 0 0.262-0.104 0.513-0.289 0.698s-0.436 0.289-0.698 0.289z"></path>
</symbol>
<symbol id="icon-bi_view-list" viewBox="0 0 32 32">
<path d="M6 9h20c1.061 0 2.078 0.421 2.828 1.172s1.172 1.768 1.172 2.828v6c0 1.061-0.421 2.078-1.172 2.828s-1.768 1.172-2.828 1.172h-20c-1.061 0-2.078-0.421-2.828-1.172s-1.172-1.768-1.172-2.828v-6c0-1.061 0.421-2.078 1.172-2.828s1.768-1.172 2.828-1.172zM6 11c-0.53 0-1.039 0.211-1.414 0.586s-0.586 0.884-0.586 1.414v6c0 0.53 0.211 1.039 0.586 1.414s0.884 0.586 1.414 0.586h20c0.53 0 1.039-0.211 1.414-0.586s0.586-0.884 0.586-1.414v-6c0-0.53-0.211-1.039-0.586-1.414s-0.884-0.586-1.414-0.586h-20zM2 4c0-0.265 0.105-0.52 0.293-0.707s0.442-0.293 0.707-0.293h26c0.265 0 0.52 0.105 0.707 0.293s0.293 0.442 0.293 0.707-0.105 0.52-0.293 0.707c-0.187 0.188-0.442 0.293-0.707 0.293h-26c-0.265 0-0.52-0.105-0.707-0.293s-0.293-0.442-0.293-0.707zM2 28c0-0.265 0.105-0.52 0.293-0.707s0.442-0.293 0.707-0.293h26c0.265 0 0.52 0.105 0.707 0.293s0.293 0.442 0.293 0.707-0.105 0.52-0.293 0.707c-0.187 0.188-0.442 0.293-0.707 0.293h-26c-0.265 0-0.52-0.105-0.707-0.293s-0.293-0.442-0.293-0.707z"></path>
</symbol>
<symbol id="icon-ci_grid-big-round" viewBox="0 0 32 32">
<path d="M21.333 25.333c-1.061 0-2.078-0.421-2.828-1.172s-1.172-1.768-1.172-2.828c0-1.061 0.421-2.078 1.172-2.828s1.768-1.172 2.828-1.172c1.061 0 2.078 0.421 2.828 1.172s1.172 1.768 1.172 2.828c0 1.061-0.421 2.078-1.172 2.828s-1.768 1.172-2.828 1.172zM10.667 25.333c-1.061 0-2.078-0.421-2.828-1.172s-1.172-1.768-1.172-2.828c0-1.061 0.421-2.078 1.172-2.828s1.768-1.172 2.828-1.172c1.061 0 2.078 0.421 2.828 1.172s1.172 1.768 1.172 2.828c0 1.061-0.421 2.078-1.172 2.828s-1.768 1.172-2.828 1.172zM21.333 14.667c-1.061 0-2.078-0.421-2.828-1.172s-1.172-1.768-1.172-2.828c0-1.061 0.421-2.078 1.172-2.828s1.768-1.172 2.828-1.172c1.061 0 2.078 0.421 2.828 1.172s1.172 1.768 1.172 2.828-0.421 2.078-1.172 2.828c-0.75 0.75-1.768 1.172-2.828 1.172zM10.667 14.667c-1.061 0-2.078-0.421-2.828-1.172s-1.172-1.768-1.172-2.828c0-1.061 0.421-2.078 1.172-2.828s1.768-1.172 2.828-1.172c1.061 0 2.078 0.421 2.828 1.172s1.172 1.768 1.172 2.828c0 1.061-0.421 2.078-1.172 2.828s-1.768 1.172-2.828 1.172z"></path>
</symbol>
<symbol id="icon-compare-svgrepo-com-1" viewBox="0 0 32 32">
<path fill="#fff" style="fill: var(--color1, #fff)" d="M20.16 14l2 2 6.88-6.9-7.040-7.1-2 2 3.6 3.6h-19.6v2.8h19.64l-3.48 3.6zM11.72 18l-2-2-6.88 7 6.98 7 2-2-3.62-3.6h19.8v-2.8h-19.8l3.52-3.6z"></path>
</symbol>
<symbol id="icon-gridicons_share" viewBox="0 0 32 32">
<path fill="#fff" style="fill: var(--color1, #fff)" d="M24 21.333c-1.051 0-2 0.413-2.712 1.076l-9.408-5.476c0.067-0.307 0.12-0.613 0.12-0.933s-0.053-0.627-0.12-0.933l9.4-5.48c0.72 0.667 1.667 1.080 2.72 1.080 2.213 0 4-1.787 4-4s-1.787-4-4-4c-2.213 0-4 1.787-4 4 0 0.32 0.053 0.627 0.12 0.933l-9.4 5.48c-0.72-0.667-1.667-1.080-2.72-1.080-2.213 0-4 1.787-4 4s1.787 4 4 4c1.053 0 2-0.413 2.72-1.080l9.397 5.491c-0.075 0.302-0.115 0.612-0.117 0.923 0 0.791 0.235 1.564 0.674 2.222s1.064 1.171 1.795 1.473c0.731 0.303 1.535 0.382 2.311 0.228s1.489-0.535 2.048-1.095 0.94-1.272 1.095-2.048c0.154-0.776 0.075-1.58-0.228-2.311s-0.816-1.356-1.473-1.795c-0.658-0.439-1.431-0.674-2.222-0.674z"></path>
</symbol>
<symbol id="icon-Heart" viewBox="0 0 32 32">
<path fill="none" stroke="#fff" style="stroke: var(--color1, #fff)" stroke-linejoin="miter" stroke-linecap="butt" stroke-miterlimit="4" stroke-width="3.6" d="M15.999 28.072c-26.666-14.739-7.999-30.739 0-20.621 8.001-10.117 26.667 5.883 0 20.621z"></path>
</symbol>
<symbol id="icon-Line-5" viewBox="0 0 2 32">
<path fill="none" stroke="#fff" style="stroke: var(--color1, #fff)" stroke-linejoin="miter" stroke-linecap="butt" stroke-miterlimit="4" stroke-width="3.6" d="M15.999 28.072c-26.666-14.739-7.999-30.739 0-20.621 8.001-10.117 26.667 5.883 0 20.621z"></path>
</symbol>
<symbol id="icon-mdi_account-alert-outline" viewBox="0 0 32 32">
<path d="M26.667 16v-6.667h2.667v8h-2.667zM26.667 22.667h2.667v-2.667h-2.667zM13.333 17.333c3.56 0 10.667 1.787 10.667 5.333v4h-21.333v-4c0-3.547 7.107-5.333 10.667-5.333zM13.333 5.333c1.415 0 2.771 0.562 3.771 1.562s1.562 2.357 1.562 3.771-0.562 2.771-1.562 3.771c-1 1-2.357 1.562-3.771 1.562s-2.771-0.562-3.771-1.562-1.562-2.357-1.562-3.771c0-1.414 0.562-2.771 1.562-3.771s2.357-1.562 3.771-1.562zM13.333 19.867c-3.96 0-8.133 1.947-8.133 2.8v1.467h16.267v-1.467c0-0.853-4.173-2.8-8.133-2.8zM13.333 7.867c-0.742 0-1.455 0.295-1.98 0.82s-0.82 1.237-0.82 1.98c0 0.743 0.295 1.455 0.82 1.98s1.237 0.82 1.98 0.82c0.743 0 1.455-0.295 1.98-0.82s0.82-1.237 0.82-1.98-0.295-1.455-0.82-1.98c-0.525-0.525-1.237-0.82-1.98-0.82z"></path>
</symbol>
<symbol id="icon-system-uicons_filtering" viewBox="0 0 32 32">
<path d="M22.0238 7.14285H8.92857M6.54762 7.14285H2.97619M22.0238 19.0476H8.92857M6.54762 19.0476H2.97619M16.0714 13.0952H2.97619M22.0238 13.0952H18.4524M7.7381 4.7619C8.05383 4.7619 8.35663 4.88733 8.57989 5.11058C8.80315 5.33384 8.92857 5.63664 8.92857 5.95238V8.33333C8.92857 8.64906 8.80315 8.95187 8.57989 9.17512C8.35663 9.39838 8.05383 9.52381 7.7381 9.52381C7.42236 9.52381 7.11956 9.39838 6.8963 9.17512C6.67304 8.95187 6.54762 8.64906 6.54762 8.33333V5.95238C6.54762 5.63664 6.67304 5.33384 6.8963 5.11058C7.11956 4.88733 7.42236 4.7619 7.7381 4.7619V4.7619ZM7.7381 16.6667C8.05383 16.6667 8.35663 16.7921 8.57989 17.0153C8.80315 17.2386 8.92857 17.5414 8.92857 17.8571V20.2381C8.92857 20.5538 8.80315 20.8566 8.57989 21.0799C8.35663 21.3031 8.05383 21.4286 7.7381 21.4286C7.42236 21.4286 7.11956 21.3031 6.8963 21.0799C6.67304 20.8566 6.54762 20.5538 6.54762 20.2381V17.8571C6.54762 17.5414 6.67304 17.2386 6.8963 17.0153C7.11956 16.7921 7.42236 16.6667 7.7381 16.6667ZM17.2619 10.7143C17.5776 10.7143 17.8804 10.8397 18.1037 11.063C18.327 11.2862 18.4524 11.589 18.4524 11.9048V14.2857C18.4524 14.6014 18.327 14.9042 18.1037 15.1275C17.8804 15.3508 17.5776 15.4762 17.2619 15.4762C16.9462 15.4762 16.6434 15.3508 16.4201 15.1275C16.1969 14.9042 16.0714 14.6014 16.0714 14.2857V11.9048C16.0714 11.589 16.1969 11.2862 16.4201 11.063C16.6434 10.8397 16.9462 10.7143 17.2619 10.7143V10.7143Z" stroke="black" stroke-linecap="round" stroke-linejoin="round"/>
</symbol>
<symbol id="icon-trophy-1" viewBox="0 0 32 32">
<path d="M26.322 1.875c-0.683 0-1.323 0.184-1.875 0.505v-1.442c0-0.518-0.42-0.938-0.938-0.938h-15c-0.518 0-0.938 0.42-0.938 0.938v1.453c-0.556-0.327-1.204-0.516-1.895-0.516-2.068 0-3.75 1.682-3.75 3.75 0 1.577 0.467 3.101 1.352 4.407 1.505 2.223 3.361 2.8 4.897 3.415 0.886 2.206 2.677 3.953 4.911 4.781l-0.691 4.397h-0.136c-1.551 0-2.813 1.262-2.813 2.812v4.688h-0.938c-0.518 0-0.938 0.42-0.938 0.938s0.42 0.938 0.938 0.938h15c0.518 0 0.938-0.42 0.938-0.938s-0.42-0.938-0.938-0.938h-0.938v-4.688c0-1.551-1.262-2.812-2.812-2.812h-0.136l-0.691-4.397c2.237-0.829 4.030-2.58 4.915-4.79 1.451-0.58 3.353-1.159 4.874-3.405 0.884-1.306 1.352-2.83 1.352-4.407-0-2.068-1.682-3.75-3.75-3.75zM7.565 11.183c-2.286-0.914-3.763-3.096-3.763-5.558 0-1.034 0.841-1.875 1.875-1.875s1.875 0.841 1.875 1.875c0 0.066 0.007 0.13 0.020 0.192v4.495c0 0.301 0.016 0.599 0.047 0.892l-0.054-0.022zM20.697 30.125h-9.375v-1.875h9.375v1.875zM19.76 24.5c0.517 0 0.938 0.421 0.938 0.938v0.938h-9.375v-0.938c0-0.517 0.421-0.938 0.938-0.938 0.509 0 6.307 0 7.5 0zM14.294 22.625l0.62-3.946c0.359 0.047 0.724 0.071 1.096 0.071s0.737-0.024 1.096-0.071l0.62 3.946h-3.432zM22.572 10.312c0 3.619-2.944 6.563-6.563 6.563s-6.563-2.944-6.563-6.563v-4.687h13.125v4.687zM22.572 3.75h-13.125v-1.875h13.125v1.875zM24.434 11.183l-0.033 0.013c0.030-0.29 0.046-0.585 0.046-0.884v-4.687c0-1.034 0.841-1.875 1.875-1.875s1.875 0.841 1.875 1.875c0 2.462-1.477 4.644-3.763 5.558z"></path>
</symbol>
<symbol id="icon-guarantee" viewBox="0 0 33 32">
<path d="M30.464 11.339c-0.422-1.307-0.242-3.27-1.34-4.786-1.106-1.527-3.030-1.962-4.116-2.756-1.075-0.786-2.075-2.497-3.883-3.087-1.757-0.573-3.554 0.205-4.947 0.205s-3.19-0.778-4.947-0.205c-1.808 0.59-2.809 2.301-3.883 3.087-1.085 0.794-3.010 1.229-4.116 2.756-1.097 1.514-0.918 3.481-1.34 4.786-0.401 1.241-1.714 2.731-1.714 4.661 0 1.931 1.312 3.415 1.714 4.661 0.422 1.308 0.242 3.27 1.34 4.786 1.106 1.527 3.030 1.962 4.116 2.756 1.075 0.786 2.075 2.497 3.883 3.087 1.756 0.573 3.555-0.205 4.947-0.205 1.39 0 3.193 0.777 4.947 0.205 1.808-0.59 2.808-2.301 3.883-3.087 1.085-0.794 3.010-1.229 4.116-2.756 1.097-1.514 0.918-3.481 1.34-4.786 0.401-1.241 1.714-2.731 1.714-4.661 0-1.931-1.311-3.414-1.714-4.661zM28.085 19.892c-0.492 1.523-0.363 3.228-0.986 4.088-0.631 0.871-2.288 1.269-3.567 2.204-1.265 0.925-2.151 2.392-3.183 2.728-0.976 0.318-2.565-0.328-4.171-0.328-1.618 0-3.191 0.648-4.171 0.328-1.031-0.336-1.916-1.802-3.183-2.728-1.271-0.93-2.938-1.336-3.567-2.204-0.62-0.857-0.496-2.573-0.986-4.088-0.479-1.484-1.593-2.768-1.593-3.892 0-1.125 1.113-2.405 1.593-3.892 0.492-1.523 0.363-3.228 0.986-4.088 0.631-0.87 2.289-1.27 3.567-2.204 1.269-0.928 2.15-2.391 3.182-2.728 0.975-0.318 2.57 0.328 4.171 0.328 1.621 0 3.19-0.648 4.171-0.328 1.031 0.336 1.917 1.802 3.183 2.728 1.271 0.93 2.938 1.336 3.567 2.204 0.621 0.857 0.496 2.572 0.986 4.088v0c0.479 1.484 1.593 2.768 1.593 3.892 0 1.125-1.113 2.405-1.593 3.892zM21.937 11.988c0.488 0.488 0.488 1.28 0 1.768l-6.257 6.257c-0.488 0.488-1.28 0.488-1.768 0l-3.493-3.493c-0.488-0.488-0.488-1.28-0-1.768s1.28-0.488 1.768 0l2.61 2.61 5.373-5.373c0.488-0.488 1.28-0.488 1.768-0z"></path>
</symbol>
<symbol id="icon-shipping" viewBox="0 0 33 32">
<path d="M29.874 16.588v-14.572c0-0.52-0.422-0.941-0.941-0.941h-25.22c-0.52 0-0.941 0.421-0.941 0.941v15.734c-0.454 0.066-0.898 0.242-1.291 0.534-1.238 0.878-1.531 2.843-0.494 4.054l4.24 5.14c2.625 3.072 5.413 3.448 9.557 3.448 3.557 0 5.147 0.016 8.247-0.691l3.018-0.722c0.489 0.683 1.266 1.126 2.14 1.126h1.487c1.477 0 2.679-1.266 2.679-2.823v-8.415c0-1.486-1.096-2.707-2.481-2.814zM25.643 18.524l-1.254-0.637c-2.062-1.041-4.446-1.079-6.541-0.106-0.572 0.225-1.818 0.979-2.465 0.954h-4.352c-1.444 0-2.618 1.174-2.618 2.618v0.686c-0.008-0.009-0.017-0.017-0.025-0.025l-3.108-3.374c-0.188-0.204-0.399-0.375-0.626-0.512v-9.339h7.703v3.451c0 0.52 0.421 0.941 0.941 0.941h5.94c0.52 0 0.941-0.421 0.941-0.941v-3.451h7.812v7.798c-1.1 0.085-2.017 0.872-2.348 1.936zM14.24 8.79h4.057v2.509h-4.057v-2.509zM27.992 6.907h-7.812v-3.95h7.812v3.95h-0zM18.298 2.957v3.95h-4.057v-3.95h4.057zM12.358 2.957v3.95h-7.703v-3.95h7.703zM22.594 28.404c-2.864 0.656-4.588 0.629-7.776 0.629-3.891 0-5.771-0.063-8.139-2.753l-4.24-5.14c-0.738-0.96 0.598-2.094 1.456-1.223l3.108 3.374c0.821 0.867 1.855 1.344 3.129 1.372h8.617c0.52 0 0.941-0.421 0.941-0.941s-0.421-0.941-0.941-0.941h-8.454v-1.426c0-0.405 0.33-0.735 0.735-0.735h4.352c0.98 0.070 2.396-0.748 3.258-1.129 1.569-0.729 3.355-0.701 4.897 0.078l1.971 1.001v7.138l-2.916 0.698zM30.473 27.817c0 0.518-0.357 0.94-0.797 0.94h-1.487c-0.439 0-0.797-0.422-0.797-0.94v-8.415c0-0.518 0.357-0.94 0.797-0.94h1.487c0.439 0 0.797 0.422 0.797 0.94v8.415z"></path>
</symbol>
<symbol id="icon-customer-support" viewBox="0 0 32 32">
<path d="M29.17 12.78c-0.21-7.083-6.037-12.78-13.17-12.78s-12.96 5.697-13.17 12.78l-0.948 0.948v6.427l0.941 0.941v4.379c0 2.56 2.083 4.643 4.643 4.643h1.166c0.389 1.095 1.435 1.882 2.662 1.882h1.882c1.228 0 2.274-0.788 2.662-1.885 0.054 0.001 0.108 0.002 0.161 0.002 4.545 0 8.348-3.239 9.223-7.529h2.461l2.434-2.434v-6.427l-0.948-0.948zM16 1.882c5.586 0 10.238 4.077 11.136 9.412h-1.914c-0.874-4.291-4.677-7.529-9.223-7.529s-8.348 3.239-9.223 7.529h-1.914c0.899-5.335 5.55-9.412 11.136-9.412zM23.291 11.294c-3.042-0.009-5.191 0.176-6.963-2.414l-0.86-1.258-0.739 1.332c-1.077 1.941-2.528 2.339-4.375 2.339h-1.644c0.838-3.244 3.789-5.647 7.291-5.647s6.453 2.403 7.291 5.647zM6.588 20.706h-1.493l-1.331-1.331v-4.867l1.331-1.331h1.493v7.529zM4.706 25.474v-2.886h2.070c0.354 1.755 1.202 3.367 2.458 4.661-0.263 0.281-0.47 0.616-0.601 0.986h-1.166c-1.522 0-2.761-1.238-2.761-2.761zM13.176 30.118h-1.882c-0.519 0-0.941-0.422-0.941-0.941s0.422-0.941 0.941-0.941h1.882c0.519 0 0.941 0.422 0.941 0.941s-0.422 0.941-0.941 0.941zM23.529 20.706c0 4.152-3.378 7.529-7.529 7.529-0.054 0-0.108-0.001-0.163-0.002-0.389-1.094-1.435-1.88-2.661-1.88-1.933 0.004-1.902-0.010-2.143 0.012-1.634-1.432-2.563-3.472-2.563-5.66v-7.529h1.882c1.666 0 3.694-0.275 5.265-2.186 2.072 2.171 4.604 2.186 6.877 2.186h1.035v7.529zM28.235 19.375l-1.331 1.331h-1.493v-7.529h1.493l1.331 1.331v4.867z"></path>
</symbol>
<symbol id="icon-dashicons_arrow-down-alt2" viewBox="0 0 32 32">
<path d="M9.6 24l8-8-8-8 1.6-3.2 11.2 11.2-11.2 11.2-1.6-3.2z"></path>
</symbol>
<symbol id="icon-Group" viewBox="0 0 29 32">
<path fill="#9f9f9f" style="fill: var(--color1, #9f9f9f)" d="M10.291 16.292c0.093-0.093 0.203-0.167 0.325-0.217s0.252-0.076 0.383-0.076c0.132 0 0.262 0.026 0.383 0.076s0.232 0.124 0.325 0.217l2.292 2.294 2.292-2.294c0.188-0.188 0.442-0.293 0.708-0.293s0.52 0.105 0.708 0.293 0.293 0.442 0.293 0.708c0 0.265-0.105 0.52-0.293 0.708l-2.294 2.292 2.294 2.292c0.188 0.188 0.293 0.442 0.293 0.708s-0.105 0.52-0.293 0.708c-0.188 0.188-0.442 0.293-0.708 0.293s-0.52-0.106-0.708-0.293l-2.292-2.294-2.292 2.294c-0.188 0.188-0.442 0.293-0.708 0.293s-0.52-0.106-0.708-0.293c-0.188-0.188-0.293-0.442-0.293-0.708s0.105-0.52 0.293-0.708l2.294-2.292-2.294-2.292c-0.093-0.093-0.167-0.203-0.217-0.325s-0.076-0.252-0.076-0.383 0.026-0.262 0.076-0.383c0.050-0.122 0.124-0.232 0.217-0.325z"></path>
<path fill="#9f9f9f" style="fill: var(--color1, #9f9f9f)" d="M14 2c1.326 0 2.598 0.527 3.535 1.464s1.464 2.209 1.464 3.536v1h-10v-1c0-1.326 0.527-2.598 1.464-3.536s2.209-1.464 3.536-1.464zM21 8v-1c0-1.857-0.738-3.637-2.050-4.95s-3.093-2.050-4.95-2.050-3.637 0.738-4.95 2.050c-1.313 1.313-2.050 3.093-2.050 4.95v1h-7v20c0 1.061 0.421 2.078 1.172 2.828s1.768 1.172 2.828 1.172h20c1.061 0 2.078-0.421 2.828-1.172s1.172-1.768 1.172-2.828v-20h-7zM2 10h24v18c0 0.53-0.211 1.039-0.586 1.414s-0.884 0.586-1.414 0.586h-20c-0.53 0-1.039-0.211-1.414-0.586s-0.586-0.884-0.586-1.414v-18z"></path>
</symbol>
<symbol id="icon-Vector" viewBox="0 0 32 32">
 <path fill-rule="evenodd" clip-rule="evenodd" d="M10 0C4.47727 0 0 4.47727 0 10C0 15.5227 4.47727 20 10 20C15.5227 20 20 15.5227 20 10C20 4.47727 15.5227 0 10 0ZM13.37 7.91545C13.5356 7.744 13.6272 7.51436 13.6252 7.276C13.6231 7.03764 13.5275 6.80963 13.3589 6.64107C13.1904 6.47252 12.9624 6.37691 12.724 6.37484C12.4856 6.37277 12.256 6.4644 12.0845 6.63L10 8.71455L7.91545 6.63C7.83159 6.54317 7.73128 6.47392 7.62037 6.42627C7.50946 6.37863 7.39016 6.35355 7.26946 6.3525C7.14875 6.35145 7.02904 6.37445 6.91731 6.42016C6.80559 6.46587 6.70409 6.53338 6.61873 6.61873C6.53338 6.70409 6.46587 6.80559 6.42016 6.91731C6.37445 7.02904 6.35145 7.14875 6.3525 7.26946C6.35355 7.39016 6.37863 7.50946 6.42627 7.62037C6.47392 7.73128 6.54317 7.83159 6.63 7.91545L8.71455 10L6.63 12.0845C6.54317 12.1684 6.47392 12.2687 6.42627 12.3796C6.37863 12.4905 6.35355 12.6098 6.3525 12.7305C6.35145 12.8513 6.37445 12.971 6.42016 13.0827C6.46587 13.1944 6.53338 13.2959 6.61873 13.3813C6.70409 13.4666 6.80559 13.5341 6.91731 13.5798C7.02904 13.6255 7.14875 13.6486 7.26946 13.6475C7.39016 13.6465 7.50946 13.6214 7.62037 13.5737C7.73128 13.5261 7.83159 13.4568 7.91545 13.37L10 11.2855L12.0845 13.37C12.256 13.5356 12.4856 13.6272 12.724 13.6252C12.9624 13.6231 13.1904 13.5275 13.3589 13.3589C13.5275 13.1904 13.6231 12.9624 13.6252 12.724C13.6272 12.4856 13.5356 12.256 13.37 12.0845L11.2855 10L13.37 7.91545Z" fill="#9F9F9F"/>
</symbol>
<symbol id="icon-ant-design_delete-filled" viewBox="0 0 32 32">
<path fill="#b88e2f" style="fill: var(--color1, #b88e2f)" d="M27 8h-4v-2.5c0-1.103-0.897-2-2-2h-10c-1.103 0-2 0.897-2 2v2.5h-4c-0.553 0-1 0.447-1 1v1c0 0.137 0.112 0.25 0.25 0.25h1.888l0.772 16.344c0.050 1.066 0.931 1.906 1.997 1.906h14.187c1.069 0 1.947-0.837 1.997-1.906l0.772-16.344h1.887c0.138 0 0.25-0.113 0.25-0.25v-1c0-0.553-0.447-1-1-1zM20.75 8h-9.5v-2.25h9.5v2.25z"></path>
</symbol>
</defs>
</svg>
